<svg width="24" height="24" viewBox="0 0 24 24" fill="none" xmlns="http://www.w3.org/2000/svg">
<g clip-path="url(#clip0_2072_340)">
<path d="M13.6318 19.7501C13.6318 18.4818 13.6318 17.197 13.6318 15.9286C13.6318 15.5333 13.7466 15.418 14.124 15.4344C14.7801 15.4674 15.4199 15.4344 16.0761 15.4344C16.3222 15.4344 16.4206 15.3521 16.4534 15.0885C16.5518 14.2155 16.6831 13.326 16.8143 12.453C16.8635 12.14 16.8143 12.0082 16.437 12.0082C15.6332 12.0247 14.8294 12.0082 14.0255 12.0082C13.7138 12.0082 13.6154 11.9094 13.6318 11.6129C13.6646 10.8552 13.5498 10.0974 13.7466 9.33971C13.9763 8.43374 14.5013 8.00546 15.4363 7.98899C15.8464 7.98899 16.2402 7.95605 16.6503 7.95605C16.8635 7.95605 16.9948 7.90663 16.9948 7.64308C16.9948 6.90183 16.9948 6.1441 16.9948 5.40286C16.9948 5.18872 16.9127 5.10636 16.7159 5.07341C15.4691 4.82633 14.2224 4.7275 12.992 5.07341C11.2531 5.55111 10.1376 7.0336 10.0556 8.94438C10.0228 9.83388 10.0228 10.7234 10.0556 11.5964C10.0556 11.9588 9.94077 12.0412 9.61267 12.0412C8.87446 12.0247 8.11985 12.0412 7.38164 12.0412C7.11917 12.0412 7.02074 12.107 7.02074 12.3871C7.02074 13.293 7.02074 14.1825 7.02074 15.0885C7.02074 15.3521 7.11917 15.4344 7.38164 15.4344C8.13626 15.4344 8.90727 15.4344 9.66189 15.4344C9.97358 15.4344 10.0556 15.5333 10.0556 15.8462C10.0556 18.4488 10.0556 21.035 10.0556 23.6376C10.0556 23.9176 10.0228 24.0164 9.6947 23.9506C4.62566 22.9952 0.573713 18.5806 0.0651691 13.4907C-0.443375 8.25255 2.05013 3.62386 6.64343 1.26833C12.6475 -1.7955 20.2757 0.955361 22.9332 7.14891C25.4268 12.9307 23.3762 19.3219 17.9626 22.5504C16.7651 23.2752 15.4527 23.7199 14.0583 23.9835C13.6646 24.0494 13.599 23.9341 13.599 23.5717C13.6154 22.3033 13.599 21.0185 13.599 19.7501H13.6318Z" fill="#EFF4FF"/>
</g>
<defs>
<clipPath id="clip0_2072_340">
<rect width="24" height="24" fill="white"/>
</clipPath>
</defs>
</svg>
