<svg width="60" height="61" viewBox="0 0 60 61" fill="none" xmlns="http://www.w3.org/2000/svg">
<path d="M50.9266 9.5962V0.961157C50.9266 0.852083 50.4699 0.443055 50.1735 0.506681C49.4144 0.673323 42.7787 8.34488 41.4025 9.29625L41.088 16.5557L25.8205 31.8625C24.1177 33.7804 26.2197 36.3345 28.4094 35.059C32.8645 30.2324 37.8367 25.9149 42.4641 21.2671C42.945 20.7824 43.4562 19.6795 43.9734 19.4462C45.5279 18.7372 49.3932 19.7765 51.223 19.1341L59.7127 10.6718L60 9.5962H50.9266Z" fill="#266AEA"/>
<path d="M51.6827 21.7156H45.3313C45.1983 21.7156 44.8807 22.1125 44.9109 22.4306C44.9291 22.6336 46.4141 25.3059 46.6954 26.1058C54.317 47.6086 27.3358 63.797 12.2043 47.6298C-2.78491 31.6141 13.9918 6.39366 34.4493 13.8319C35.3355 14.1531 37.622 15.568 38.124 15.6135C38.3781 15.6377 38.8287 15.3923 38.8287 15.2014V8.83874C14.5604 -2.69283 -10.0739 24.5363 4.22278 47.748C19.206 72.0715 57.5804 59.0674 54.2505 30.0507C54.1083 28.8266 52.5901 21.9943 51.6827 21.7156Z" fill="#266AEA"/>
</svg>
