<svg width="60" height="37" viewBox="0 0 60 37" fill="none" xmlns="http://www.w3.org/2000/svg">
<path d="M56.4755 12.9201C48.7966 4.1813 38.1255 -0.453591 26.274 0.664529C17.4242 1.50468 8.32056 7.10153 2.86917 13.8571C1.9331 15.0158 -0.135759 17.377 0.00703097 18.8137C0.213283 20.925 6.84189 27.4869 8.7394 28.9861C21.1907 38.818 38.0969 39.0367 50.7417 29.4327C52.9217 27.7743 59.8073 21.3216 59.9945 18.8418C60.131 17.0553 57.6908 14.3006 56.4755 12.9201ZM53.7943 18.9823C53.2041 20.5283 47.2862 25.5661 45.668 26.6249C33.3405 34.6829 14.8095 31.7283 6.52775 19.2947C6.28025 18.9199 5.909 18.5545 6.17554 18.0735C11.9062 10.9743 20.3244 5.80538 29.7771 5.6461C38.4047 5.50243 47.7178 10.3622 52.9851 16.9803C53.4992 17.6237 54.1084 18.1578 53.7943 18.9823ZM30.0753 8.59756C24.5034 8.59756 19.9849 13.0419 19.9849 18.5263C19.9849 24.0108 24.5034 28.4583 30.0753 28.4583C35.6473 28.4583 40.1658 24.0139 40.1658 18.5263C40.1658 13.0388 35.6473 8.59756 30.0753 8.59756ZM27.1244 18.5232C25.4966 18.5232 24.1765 17.224 24.1765 15.6217C24.1765 14.0195 25.4966 12.7171 27.1244 12.7171C28.7522 12.7171 30.0753 14.0164 30.0753 15.6217C30.0753 17.2271 28.7522 18.5232 27.1244 18.5232Z" fill="#266AEA"/>
</svg>
