<svg width="37" height="38" viewBox="0 0 37 38" fill="none" xmlns="http://www.w3.org/2000/svg">
<path d="M27.3782 21.8353C27.306 21.7997 24.6087 20.4354 24.1296 20.2583C23.9339 20.1861 23.7244 20.1158 23.5015 20.1158C23.137 20.1158 22.8313 20.302 22.5931 20.6682C22.3235 21.0795 21.5081 22.059 21.2561 22.3511C21.2232 22.3896 21.1784 22.4357 21.1515 22.4357C21.1275 22.4357 20.7098 22.259 20.5836 22.2029C17.6902 20.9119 15.4938 17.8078 15.1927 17.2843C15.1497 17.2092 15.1478 17.175 15.1474 17.175C15.158 17.1351 15.2551 17.0349 15.3055 16.9832C15.4526 16.834 15.6117 16.6369 15.7657 16.4469C15.8388 16.3566 15.9119 16.2664 15.9836 16.1814C16.207 15.9144 16.3064 15.7073 16.422 15.4669L16.4826 15.342C16.7643 14.7673 16.5238 14.2828 16.4461 14.126C16.3822 13.9949 15.2431 11.172 15.1224 10.8751C14.831 10.1593 14.4462 9.82632 13.9116 9.82632C13.8621 9.82632 13.9116 9.82632 13.7034 9.83535C13.45 9.84627 12.0704 10.0329 11.4603 10.4277C10.8133 10.8466 9.71901 12.1819 9.71901 14.5298C9.71901 16.6431 11.0246 18.6385 11.5857 19.3976C11.5995 19.4166 11.625 19.4555 11.6624 19.5111C13.8094 22.7316 16.4863 25.118 19.1993 26.2314C21.8115 27.303 23.0487 27.427 23.7517 27.427C24.0472 27.427 24.2836 27.4032 24.4926 27.3819L24.6249 27.369C25.5272 27.2868 27.5104 26.2314 27.9614 24.9442C28.3166 23.93 28.4105 22.8223 28.1741 22.42C28.0122 22.1464 27.7329 22.0091 27.38 21.8348L27.3782 21.8353Z" fill="white"/>
<path d="M18.8284 0C8.80789 0 0.655408 8.31013 0.655408 18.524C0.655408 21.8277 1.51612 25.0615 3.14689 27.892L0.0254841 37.3483C-0.0327909 37.5245 0.0106841 37.7197 0.137409 37.8523C0.228984 37.9482 0.353396 38 0.480584 38C0.529146 38 0.578171 37.9924 0.626271 37.9767L10.2268 34.8436C12.8543 36.2852 15.8235 37.0462 18.8284 37.0462C28.848 37.0462 37 28.7375 37 18.524C37 8.3106 28.8484 0 18.8284 0ZM18.8284 33.1878C16.0007 33.1878 13.2618 32.3494 10.9076 30.7624C10.8285 30.7092 10.7365 30.6817 10.644 30.6817C10.595 30.6817 10.546 30.6893 10.4983 30.7049L5.68879 32.2748L7.2414 27.5704C7.29181 27.4179 7.26638 27.2503 7.17387 27.1206C5.38123 24.6045 4.43357 21.632 4.43357 18.524C4.43357 10.4376 10.891 3.85843 18.8284 3.85843C26.7658 3.85843 33.2214 10.4372 33.2214 18.524C33.2214 26.6095 26.7649 33.1873 18.8284 33.1873V33.1878Z" fill="white"/>
</svg>
